<?xml version="1.0" encoding="utf-8"?>
<!-- Generator: Adobe Illustrator 23.0.5, SVG Export Plug-In . SVG Version: 6.00 Build 0)  -->
<svg version="1.1" id="Capa_1" xmlns="http://www.w3.org/2000/svg" xmlns:xlink="http://www.w3.org/1999/xlink" x="0px" y="0px"
	 viewBox="0 0 984.9 160.6" style="enable-background:new 0 0 984.9 160.6;" xml:space="preserve">
<style type="text/css">
	.st0{fill:#425EA2;}
	.st1{fill:none;}
	.st2{fill:url(#SVGID_1_);}
	.st3{fill:url(#SVGID_2_);}
	.st4{fill:url(#SVGID_3_);}
	.st5{fill:url(#SVGID_4_);}
	.st6{fill:#FFFFFF;}
	.st7{fill:url(#SVGID_5_);}
	.st8{fill:url(#SVGID_6_);}
	.st9{fill:url(#SVGID_7_);}
	.st10{fill:url(#SVGID_8_);}
	.st11{fill:url(#SVGID_9_);}
	.st12{fill:url(#SVGID_10_);}
	.st13{fill:url(#SVGID_11_);}
	.st14{fill:url(#SVGID_12_);}
	.st15{fill:url(#SVGID_13_);}
	.st16{fill:url(#SVGID_14_);}
	.st17{fill:url(#SVGID_15_);}
	.st18{fill:url(#SVGID_16_);}
	.st19{fill:url(#SVGID_17_);}
	.st20{fill:url(#SVGID_18_);}
	.st21{fill:url(#SVGID_19_);}
	.st22{fill:url(#SVGID_20_);}
	.st23{fill:#CCCCCC;}
	.st24{fill:none;stroke:#000000;stroke-width:3;stroke-miterlimit:10;}
	.st25{stroke:#000000;stroke-width:2;stroke-miterlimit:10;}
	.st26{fill:#FFFFFF;stroke:#040006;stroke-miterlimit:10;}
</style>
<path class="st0" d="M936.2,147.9H826.3c-26.9,0-48.8-21.8-48.8-48.8V48.8c0-26.9,21.8-48.8,48.8-48.8h109.9
	c26.9,0,48.8,21.8,48.8,48.8v50.4C984.9,126.1,963.1,147.9,936.2,147.9z"/>
<g>
	<path class="st1" d="M826.3,0c-26.9,0-48.8,21.8-48.8,48.8v50.4c0,9.6,2.8,18.6,7.6,26.1L874.7,0H826.3z"/>
	<path class="st1" d="M983.2,35.9c-0.6-2.2-1.3-4.3-2.2-6.4l-2.3,3.2L983.2,35.9z"/>
	<path class="st1" d="M939.3,147.8c25.5-1.6,45.7-22.8,45.7-48.7V83.5L939.3,147.8z"/>
	<polygon class="st1" points="854.1,147.9 854.2,147.9 859.1,141 	"/>
	<linearGradient id="SVGID_1_" gradientUnits="userSpaceOnUse" x1="795.8321" y1="31.8943" x2="957.7784" y2="111.7154">
		<stop  offset="0" style="stop-color:#425EA2"/>
		<stop  offset="0.2369" style="stop-color:#435FA3"/>
		<stop  offset="0.4269" style="stop-color:#4564A7"/>
		<stop  offset="0.6005" style="stop-color:#486CAD"/>
		<stop  offset="0.7644" style="stop-color:#4C78B6"/>
		<stop  offset="0.9201" style="stop-color:#5288C3"/>
		<stop  offset="1" style="stop-color:#5692CB"/>
	</linearGradient>
	<path class="st2" d="M956.2,4.3c-6.1-2.7-12.9-4.3-20-4.3h-61.4l-89.6,125.3c8.7,13.6,23.9,22.7,41.2,22.7h27.8l5-6.9L956.2,4.3z"
		/>
	
		<linearGradient id="SVGID_2_" gradientUnits="userSpaceOnUse" x1="3092.4048" y1="1652.6719" x2="3254.3511" y2="1732.493" gradientTransform="matrix(-0.3262 -0.9453 -0.9453 0.3262 3561.0806 2542.3372)">
		<stop  offset="0" style="stop-color:#425EA2"/>
		<stop  offset="0.2369" style="stop-color:#435FA3"/>
		<stop  offset="0.4269" style="stop-color:#4564A7"/>
		<stop  offset="0.6005" style="stop-color:#486CAD"/>
		<stop  offset="0.7644" style="stop-color:#4C78B6"/>
		<stop  offset="0.9201" style="stop-color:#5288C3"/>
		<stop  offset="1" style="stop-color:#5692CB"/>
	</linearGradient>
	<path class="st3" d="M984.9,48.8c0-4.5-0.6-8.8-1.7-12.9l-4.5-3.2l2.3-3.2c-4.7-11-13.4-19.9-24.2-25L859.1,141l-4.9,6.9h82
		c1,0,2.1,0,3.1-0.1l45.7-64.3V48.8z"/>
	<linearGradient id="SVGID_3_" gradientUnits="userSpaceOnUse" x1="801.5306" y1="20.3328" x2="963.4769" y2="100.1539">
		<stop  offset="0" style="stop-color:#425EA2"/>
		<stop  offset="0.2369" style="stop-color:#435FA3"/>
		<stop  offset="0.4269" style="stop-color:#4564A7"/>
		<stop  offset="0.6005" style="stop-color:#486CAD"/>
		<stop  offset="0.7644" style="stop-color:#4C78B6"/>
		<stop  offset="0.9201" style="stop-color:#5288C3"/>
		<stop  offset="1" style="stop-color:#5692CB"/>
	</linearGradient>
	<path class="st4" d="M956.7,4.5c-0.2-0.1-0.4-0.2-0.6-0.3L859.1,141L956.7,4.5z"/>
	
		<linearGradient id="SVGID_4_" gradientUnits="userSpaceOnUse" x1="3093.6274" y1="1650.1912" x2="3255.5737" y2="1730.0122" gradientTransform="matrix(-0.3262 -0.9453 -0.9453 0.3262 3561.0806 2542.3372)">
		<stop  offset="0" style="stop-color:#425EA2"/>
		<stop  offset="0.2369" style="stop-color:#435FA3"/>
		<stop  offset="0.4269" style="stop-color:#4564A7"/>
		<stop  offset="0.6005" style="stop-color:#486CAD"/>
		<stop  offset="0.7644" style="stop-color:#4C78B6"/>
		<stop  offset="0.9201" style="stop-color:#5288C3"/>
		<stop  offset="1" style="stop-color:#5692CB"/>
	</linearGradient>
	<path class="st5" d="M956.7,4.5c-0.2-0.1-0.4-0.2-0.6-0.3L859.1,141L956.7,4.5z"/>
</g>
<polygon class="st6" points="841.3,39.4 841.3,108.5 921.2,71.6 "/>
<g>
	<path d="M48,132.2c-8.6,0-16-1.6-22.4-4.9c-6.4-3.3-11.4-7.7-15-13.4c-3.6-5.7-6.3-12-8-18.9C0.9,88,0,80.5,0,72.4
		c0-8.1,0.9-15.7,2.6-22.7c1.7-7,4.4-13.3,8-19c3.6-5.7,8.6-10.2,15-13.4C32,14,39.4,12.3,48,12.3c6.9,0,13,1.1,18.4,3.3
		s9.9,5.2,13.5,8.9c3.6,3.7,6.6,8.2,9,13.4c2.4,5.2,4.1,10.6,5.2,16.3c1,5.7,1.5,11.7,1.5,18.2c0,8.1-0.9,15.6-2.6,22.5
		c-1.7,6.9-4.4,13.2-8,18.9c-3.6,5.7-8.6,10.3-14.9,13.5C63.8,130.6,56.5,132.2,48,132.2z M30.5,117.6c4.9,2.9,10.7,4.3,17.5,4.3
		c6.8,0,12.6-1.4,17.5-4.3s8.7-6.8,11.3-11.7c2.6-4.9,4.6-10.1,5.7-15.6c1.2-5.5,1.8-11.5,1.8-17.9c0-6.4-0.6-12.4-1.8-17.9
		c-1.2-5.5-3.1-10.8-5.7-15.7c-2.6-5-6.4-8.9-11.3-11.8S54.8,22.7,48,22.7c-6.8,0-12.6,1.4-17.6,4.3c-5,2.9-8.8,6.8-11.4,11.8
		c-2.6,5-4.6,10.2-5.7,15.7c-1.2,5.5-1.8,11.5-1.8,17.9c0,6.4,0.6,12.4,1.9,17.9c1.2,5.5,3.2,10.7,5.8,15.6
		C21.8,110.8,25.6,114.7,30.5,117.6z"/>
	<path d="M118.3,160.6V51.2h9.6v10.5c5.6-8.5,14-12.7,25-12.7c11.4,0,19.9,3.9,25.5,11.7c5.6,7.8,8.5,17.7,8.5,29.7
		c0,11.8-2.8,21.7-8.5,29.7c-5.6,7.9-14.1,11.9-25.5,11.9c-10.6,0-18.7-3.9-24.3-11.7v40.2H118.3z M152.7,122.6
		c8.6,0,14.7-3,18.4-9.1c3.7-6.1,5.6-13.7,5.6-22.8c0-9-1.9-16.6-5.7-22.8c-3.8-6.2-9.9-9.3-18.3-9.3s-14.6,3.1-18.3,9.3
		c-3.8,6.2-5.7,13.8-5.7,22.8c0,9,1.9,16.6,5.7,22.7C138.1,119.5,144.2,122.6,152.7,122.6z"/>
	<path d="M237.9,132c-11.8,0-20.8-3.7-26.9-11.2c-6.1-7.4-9.1-17.2-9.1-29.4c0-11.8,2.8-21.9,8.4-30.1c5.6-8.2,14.1-12.3,25.4-12.3
		c21.4,0,32.1,13.1,32.1,39.4c0,1.5-0.1,2.5-0.2,3.2c-0.1,0.7-0.2,1.9-0.2,3.5h-55.3c1,18.4,10.2,27.6,27.6,27.6
		c7,0,13.6-2.3,19.8-6.8l5.1,7.4C256.9,129.2,248,132,237.9,132z M235.7,58.3c-14.5,0-22.4,9.5-23.5,28.4h46.2
		c-0.2-9.1-1.9-16.1-5.1-21C250.1,60.8,244.2,58.3,235.7,58.3z"/>
	<path d="M286.4,129.8V51.2h9.8v10.3c5.3-8.3,13.9-12.5,25.9-12.5c19.7,0,29.6,11.3,29.6,33.8v47h-10.3V85.2
		c0-17.8-6.7-26.7-19.9-26.7c-7.4,0-13.4,2.3-17.9,6.8c-4.5,4.6-6.8,10.6-6.8,18v46.5H286.4z"/>
	<path d="M407.4,129.8L367.2,14.7h12l34.7,101.4l34.7-101.4h11.7l-40.1,115.1H407.4z"/>
	<path d="M482.5,31.8c-2.3,0-4.2-0.8-5.7-2.4c-1.6-1.6-2.4-3.5-2.4-5.7c0-2.4,0.8-4.3,2.3-5.8c1.5-1.5,3.5-2.3,5.8-2.3
		c2.5,0,4.5,0.7,5.9,2.2c1.5,1.5,2.2,3.4,2.2,5.9c0,2.4-0.8,4.3-2.3,5.8S484.9,31.8,482.5,31.8z M495.7,130.5
		c-6.7,0-11.3-1.6-14-4.7c-2.8-2.9-4.2-8.1-4.2-15.6v-59h10.3v57.6c0,2.4,0.1,4.3,0.4,5.8c0.3,1.5,1,2.9,2.3,4.2
		c1.2,1.3,3,1.9,5.2,1.9h1.5v9.6H495.7z"/>
	<path d="M567.4,129.8V120c-5.6,8-13.8,12-24.3,12c-11.4,0-19.9-3.9-25.5-11.8c-5.6-7.8-8.5-17.7-8.5-29.7c0-11.9,2.8-21.9,8.5-29.8
		C523.1,53,531.6,49,543,49c10.6,0,18.7,3.8,24.2,11.3V14.7h10.3v115.1H567.4z M543.2,58.5c-8.3,0-14.4,3.1-18.2,9.3
		c-3.8,6.2-5.7,13.8-5.7,22.7c0,8.8,1.9,16.3,5.7,22.7c3.8,6.3,9.9,9.5,18.1,9.5c8.6,0,14.7-3.1,18.4-9.2c3.7-6.1,5.6-13.8,5.6-22.9
		c0-5.9-0.6-11-1.9-15.6c-1.3-4.5-3.8-8.4-7.5-11.6C554,60.1,549.2,58.5,543.2,58.5z"/>
	<path d="M634.6,132c-11.8,0-20.8-3.7-26.9-11.2c-6.1-7.4-9.1-17.2-9.1-29.4c0-11.8,2.8-21.9,8.4-30.1c5.6-8.2,14.1-12.3,25.4-12.3
		c21.4,0,32.1,13.1,32.1,39.4c0,1.5-0.1,2.5-0.2,3.2c-0.1,0.7-0.2,1.9-0.2,3.5h-55.3c1,18.4,10.2,27.6,27.6,27.6
		c7,0,13.6-2.3,19.8-6.8l5.1,7.4C653.7,129.2,644.8,132,634.6,132z M632.4,58.3c-14.5,0-22.4,9.5-23.5,28.4h46.2
		c-0.2-9.1-1.9-16.1-5.1-21C646.9,60.8,641,58.3,632.4,58.3z"/>
	<path d="M712.9,132.2c-11.9,0-20.8-3.9-26.5-11.7c-5.7-7.8-8.6-17.9-8.6-30.3c0-12.4,2.9-22.4,8.6-30c5.7-7.6,14.6-11.4,26.5-11.4
		c11.9,0,20.7,3.8,26.4,11.4c5.6,7.6,8.5,17.6,8.5,30c0,12.4-2.8,22.5-8.5,30.3C733.5,128.3,724.8,132.2,712.9,132.2z M694.1,113.4
		c4,6.2,10.3,9.3,18.9,9.3c8.6,0,14.8-3.1,18.7-9.4s5.8-13.9,5.8-23.1c0-9.2-1.9-16.9-5.8-22.9c-3.9-6-10.1-9-18.7-9
		c-8.7,0-15,3-18.9,9c-3.9,6-5.9,13.7-5.9,22.9C688.1,99.5,690.1,107.2,694.1,113.4z"/>
</g>
</svg>
